<svg id="Group_1_copy" data-name="Group 1 copy" xmlns="http://www.w3.org/2000/svg" width="499.988" height="500" viewBox="0 0 478 478.011">
  <metadata><?xpacket begin="﻿" id="W5M0MpCehiHzreSzNTczkc9d"?>
<x:xmpmeta xmlns:x="adobe:ns:meta/" x:xmptk="Adobe XMP Core 5.6-c138 79.159824, 2016/09/14-01:09:01        ">
   <rdf:RDF xmlns:rdf="http://www.w3.org/1999/02/22-rdf-syntax-ns#">
      <rdf:Description rdf:about=""
            xmlns:xmp="http://ns.adobe.com/xap/1.0/">
         <xmp:CreatorTool>Adobe Photoshop CC 2017 (Macintosh)</xmp:CreatorTool>
      </rdf:Description>
   </rdf:RDF>
</x:xmpmeta>
                                                                                                    
                                                                                                    
                                                                                                    
                                                                                                    
                                                                                                    
                                                                                                    
                                                                                                    
                                                                                                    
                                                                                                    
                                                                                                    
                                                                                                    
                                                                                                    
                                                                                                    
                                                                                                    
                                                                                                    
                                                                                                    
                                                                                                    
                                                                                                    
                                                                                                    
                                                                                                    
                           
<?xpacket end="w"?></metadata>
<defs>
    <style>
      .cls-1 {
        fill: #4e5d61;
      }

      .cls-1, .cls-2, .cls-3, .cls-4, .cls-5, .cls-6, .cls-7, .cls-8, .cls-9 {
        fill-rule: evenodd;
      }

      .cls-2 {
        fill: #7a8d93;
      }

      .cls-3 {
        fill: #17191c;
      }

      .cls-4 {
        fill: #977ad6;
      }

      .cls-5 {
        fill: #32b0ee;
      }

      .cls-6 {
        fill: #ffa5a5;
      }

      .cls-7 {
        fill: #fff;
      }

      .cls-8 {
        fill: #adc0c6;
      }
    </style>
  </defs>
  <path id="Rounded_Rectangle_2_copy" data-name="Rounded Rectangle 2 copy" class="cls-1" d="M357.425,249.618l201.08-23.7c1.267-.149,2.373,1.7,2.477,4.119l6.641,154.879c0.089,2.074-.765,4.249-1.913,4.865L390.392,483.867c-2.417,1.3-4.726.02-5.14-2.87L353.134,256.838C352.612,253.2,354.544,249.958,357.425,249.618Z" transform="translate(-353.031 -123.588)"/>
  <path id="Rounded_Rectangle_2" data-name="Rounded Rectangle 2" class="cls-2" d="M365.828,249.477L567.2,225.757c1.269-.149,2.372,1.7,2.47,4.122l6.291,154.976c0.084,2.076-.775,4.252-1.926,4.868L398.3,483.866c-2.422,1.3-4.731.021-5.139-2.87L361.515,256.7C361,253.058,362.942,249.817,365.828,249.477Z" transform="translate(-353.031 -123.588)"/>
  <path id="Rounded_Rectangle_2_copy_2" data-name="Rounded Rectangle 2 copy 2" class="cls-3" d="M372.163,255.385l189.581-22.378c1.194-.141,2.232,1.6,2.325,3.888l5.923,146.213c0.079,1.958-.73,4.011-1.814,4.593L402.733,476.52c-2.281,1.225-4.454.02-4.838-2.708L368.1,262.2C367.618,258.764,369.446,255.706,372.163,255.385Z" transform="translate(-353.031 -123.588)"/>
  <g id="code">
    <path class="cls-2" d="M519.524,362.766l-0.543-7.749,35.79-7.842,0.4,7.538Zm23.349-32.47,10.88-2.2,0.409,7.67-10.837,2.264Zm-53.357-9.946,63.2-11.665,0.416,7.807L490.19,328.549Zm2.873-21.533,59.275-9.891,0.423,7.946-59.03,10.27ZM523.6,272.829l26.987-4.018,0.431,8.089-26.877,4.2Zm-90.991,13.548,59.621-8.878,0.674,8.474-59.352,9.265Zm-7.55-21.792,36.871-4.817,0.815,8.828-36.7,5.063Zm3.42,31.445-13.734,2.145-1.034-8.985,13.8-2.054ZM378.5,270.667l18.311-2.392,1.126,9.263-18.22,2.513Zm30.235,138.444L396.833,412l-1.078-8.312,11.959-2.823Zm30.467-92.6L417.3,320.323l-1.013-8.807,22.01-3.672Zm35.688,14.969-55.1,10.555L418.8,333.4l55.349-10.215Zm-23.207,25.694-29.441,6.149-0.973-8.465,29.576-5.974Zm19.672-12.433,56.209-11.353,0.513,7.829L472.1,352.909Zm13.194,25.926L424.645,384.2l-0.955-8.3,60.172-13.185Z" transform="translate(-353.031 -123.588)"/>
    <path class="cls-4" d="M498.08,276.3l21.038-3.127,0.6,8.935-20.942,3.275ZM442.7,306.43l14.016-2.331,0.889,9.212-13.948,2.426Zm35.3,15.073,8.474-1.557,0.74,8.855-8.434,1.613Zm10.08,39.976,8.2-1.795,0.685,8.488-8.165,1.847Z" transform="translate(-353.031 -123.588)"/>
    <path class="cls-5" d="M459.7,303.938l29.785-4.962,0.68,8.345-29.654,5.152Zm-5.671,44.3,13.545-2.736,0.823,8.818-13.481,2.823ZM500.776,358.7l12.441-2.723,0.61,8.382-12.387,2.8Z" transform="translate(-353.031 -123.588)"/>
    <path class="cls-6" d="M400.864,267.746l19.49-2.546,1.087,9.8-19.388,2.686ZM529.3,333.038l11.095-2.241,0.5,8.346-11.048,2.314Z" transform="translate(-353.031 -123.588)"/>
  </g>
  <g id="bun">
    <path class="cls-7" d="M830.767,429.241c-2.311,30.189-23.022,54.674-52.828,73.032a115.3,115.3,0,0,1-15.048,17.378c-15.638,14.759-44.7,29.031-44.7,29.031l11.326-24.177a345.775,345.775,0,0,1-99.069,17.542c-33.131.914-60.451-.786-82.967-4.574L528.633,552l4.024-17.473a183.647,183.647,0,0,1-23.3-6.96l-17.977,8.673,1.656-15.759,1.082,0.26c-39.269-20.734-48.4-53.908-49.093-88.182-0.615-30.621,20.14-76.628,53.194-111.071,7.5-31.105,21.027-75.009,42.827-107.075,44.44-65.369,100.961-55.53,62.91,0-29.339,42.816-38.817,60.011-41.037,63.693-1.5,2.49,1.278-.331,5.256-1.5,8.689-2.564,25.933-8.268,50.066-9.989A328.257,328.257,0,0,1,661.9,212.754c49.464-49.367,101.965-31.881,48.011,34.837-6.814,8.425-14.442,17.248-22.36,26.045,40.874,11.212,77.023,33.94,102.811,61.365,9.706-3.476,22.621-3,32.952,15.442,6.705,11.972,3.655,23.356-1.2,31.862C828.8,397.987,831.939,413.941,830.767,429.241Z" transform="translate(-353.031 -123.588)"/>
    <path id="Shape_1_copy" data-name="Shape 1 copy" class="cls-8" d="M562.747,278.715c-10.918,5.975-25.859,14.366-35.117,20.46a317.318,317.318,0,0,0-29.209,21.5c7.539-31.054,21.016-74.473,42.629-106.264,44.44-65.369,100.961-55.53,62.91,0C591.014,233.305,575.867,257.346,562.747,278.715Zm-72.9,239.64a90.116,90.116,0,0,1-23.643-19.5C476.911,507.714,485.742,514.979,489.85,518.355Zm19.758,8.814,0.19,0.558c-0.144-.054-0.293-0.106-0.437-0.16l-17.977,8.673,1.636-15.575Zm106.63-176.075c-0.379-1.39,38.029-40.6,71.8-77.32q4.49,1.244,8.9,2.673C658.575,302.126,616.506,352.079,616.238,351.094Zm-38.3-24.078c-13.782,19.686,19.807-33.772,36.418-60.083q1.891-.174,3.778-0.313C600.515,293.432,584.205,318.069,577.941,327.016Zm229.03,29.345a165.652,165.652,0,0,0-16.116-21.528c9.648-3.284,22.3-2.53,32.462,15.61,6.705,11.972,3.655,23.356-1.2,31.862,0.227,0.533.44,1.068,0.659,1.6C818.4,375.7,812.945,365.949,806.971,356.361Z" transform="translate(-353.031 -123.588)"/>
    <path class="cls-8" d="M481.073,436.874a110.719,110.719,0,0,0-30.787,11.287C431.679,458.727,421,466.972,421,466.972s10.47-6.3,28.535-16.554A169.4,169.4,0,0,1,481.073,436.874Zm-48.809,47.4s11.744-12.217,24.029-22.574c11.33-9.551,27.784-15.8,27.784-15.8a277.076,277.076,0,0,0-25.531,16.554C445.036,472.464,432.264,484.279,432.264,484.279ZM555.414,445.9a360.668,360.668,0,0,1,31.538,27.088,240.184,240.184,0,0,1,23.279,27.089s-12.9-13.862-26.282-27.089C569.938,459.145,555.414,445.9,555.414,445.9Zm-0.751-7.525s21.249,8.476,37.546,18.812A103.673,103.673,0,0,1,613.985,476a262.408,262.408,0,0,0-25.531-18.811C572.382,447,554.663,438.379,554.663,438.379Z" transform="translate(-353.031 -123.588)"/>
    <path class="cls-9" d="M577.426,402.344c-1.731,8.682-7.8,17.409-13.229,16.33-5.371-1.067-5.967-10.9-2.89-19.122,2.784-7.445,7.836-12.2,11.689-11.6C576.89,388.552,578.984,394.526,577.426,402.344Zm-54.926,58.3a27.859,27.859,0,0,1-6.428-9.488,67.6,67.6,0,0,1-6.428,6.326c-3.789,3.07-9.642,4.744-9.642,4.744a55.827,55.827,0,0,0,8.838-7.907,86.093,86.093,0,0,0,8.035-11.069,52.885,52.885,0,0,0,6.428,13.441,48.3,48.3,0,0,0,10.446,10.278A33.354,33.354,0,0,1,522.5,460.647Zm-43.539-44.369c-5.268-1.06-5.854-10.828-2.835-19,2.731-7.4,7.687-12.12,11.467-11.528,3.82,0.6,5.874,6.534,4.345,14.3C490.241,408.679,484.285,417.35,478.961,416.278Z" transform="translate(-353.031 -123.588)"/>
  </g>
  <g id="comupter">
    <path id="Rounded_Rectangle_1_copy" data-name="Rounded Rectangle 1 copy" class="cls-2" d="M610.27,556.228l-194.094-9.311L417,546.1l-1.8-5.993,1.647,0.068a9.7,9.7,0,0,1-.963-1.49l-55.7-107.549-5.188-4.5L358.127,422l0.186,0.306A2.231,2.231,0,0,1,359.5,422H483.552c2.39,0,5.459,2.467,6.847,5.5l52.717,115.235a5.281,5.281,0,0,1,.55,2.69l65.951,2.733a5.717,5.717,0,0,1,4.094,4.6C614.367,556.591,610.27,556.228,610.27,556.228Z" transform="translate(-353.031 -123.588)"/>
    <path id="Rounded_Rectangle_1" data-name="Rounded Rectangle 1" class="cls-8" d="M358.143,424.318L478.692,424.4c2.321,0,5.3,2.407,6.639,5.365l50.93,112.169c1.2,2.64.369,4.716-1.848,4.643l-115.392-3.8c-2.082-.068-4.835-2.194-6.155-4.753L356.887,429.494C355.413,426.637,355.973,424.317,358.143,424.318ZM418.626,543.6l114.489,3.8a2.966,2.966,0,0,1,2.831,2.723,2.385,2.385,0,0,1-2.533,2.545l-114.684-3.967a2.708,2.708,0,0,1-2.57-2.639A2.376,2.376,0,0,1,418.626,543.6Z" transform="translate(-353.031 -123.588)"/>
    <path class="cls-2" d="M443.907,485.234a19.057,19.057,0,0,1,7.051,8.715c2.226,6.052-.782,10.679-6.624,10.548-5.823-.13-12.6-4.948-15.243-10.973-1.262-2.875-1.358-5.518-.49-7.541-4.765-3.72-20.344-16.423-16.151-20.136,4.224-3.742,14.392,11.3,18.305,17.527a7.838,7.838,0,0,1,4.565-1.214,13.257,13.257,0,0,1,3.919.711c-2.186-6.129-6.5-20.337.876-18.392C448.1,466.586,445.291,480.133,443.907,485.234Zm0,0a19.057,19.057,0,0,1,7.051,8.715c2.226,6.052-.782,10.679-6.624,10.548-5.823-.13-12.6-4.948-15.243-10.973-1.262-2.875-1.358-5.518-.49-7.541-4.765-3.72-20.344-16.423-16.151-20.136,4.224-3.742,14.392,11.3,18.305,17.527a7.838,7.838,0,0,1,4.565-1.214,13.257,13.257,0,0,1,3.919.711c-2.186-6.129-6.5-20.337.876-18.392C448.1,466.586,445.291,480.133,443.907,485.234Z" transform="translate(-353.031 -123.588)"/>
    <path id="Shape_4_copy" data-name="Shape 4 copy" class="cls-7" d="M441.542,486.705a16.867,16.867,0,0,1,6.252,7.718c1.969,5.354-.7,9.447-5.888,9.332s-11.185-4.378-13.533-9.713a8.4,8.4,0,0,1-.433-6.681c-4.236-3.3-18.1-14.577-14.369-17.87,3.76-3.318,12.808,10.037,16.285,15.559a6.983,6.983,0,0,1,4.058-1.073,11.818,11.818,0,0,1,3.483.632c-1.94-5.433-5.767-18.039.789-16.306C445.284,470.18,442.775,482.186,441.542,486.705Zm0,0a16.867,16.867,0,0,1,6.252,7.718c1.969,5.354-.7,9.447-5.888,9.332s-11.185-4.378-13.533-9.713a8.4,8.4,0,0,1-.433-6.681c-4.236-3.3-18.1-14.577-14.369-17.87,3.76-3.318,12.808,10.037,16.285,15.559a6.983,6.983,0,0,1,4.058-1.073,11.818,11.818,0,0,1,3.483.632c-1.94-5.433-5.767-18.039.789-16.306C445.284,470.18,442.775,482.186,441.542,486.705Z" transform="translate(-353.031 -123.588)"/>
  </g>
</svg>
